<mxfile host="app.diagrams.net" modified="2023-10-27T18:42:02.798Z" agent="Mozilla/5.0 (Windows NT 10.0; Win64; x64) AppleWebKit/537.36 (KHTML, like Gecko) Chrome/118.0.0.0 Safari/537.36" etag="r-7EgSZizhxIuZsmxMVK" version="22.0.8" type="github">
  <diagram name="Page-1" id="Rs1aMuwNrwx8zFW7lKC0">
    <mxGraphModel dx="1697" dy="1230" grid="1" gridSize="10" guides="1" tooltips="1" connect="1" arrows="1" fold="1" page="1" pageScale="1" pageWidth="817" pageHeight="784" math="0" shadow="0">
      <root>
        <mxCell id="0" />
        <mxCell id="1" parent="0" />
        <mxCell id="yu-vMoSQ0n794UT8hFaY-3" value="" style="edgeStyle=orthogonalEdgeStyle;rounded=0;orthogonalLoop=1;jettySize=auto;html=1;" edge="1" parent="1" source="yu-vMoSQ0n794UT8hFaY-1" target="yu-vMoSQ0n794UT8hFaY-2">
          <mxGeometry relative="1" as="geometry" />
        </mxCell>
        <mxCell id="yu-vMoSQ0n794UT8hFaY-42" value="" style="edgeStyle=orthogonalEdgeStyle;rounded=0;orthogonalLoop=1;jettySize=auto;html=1;entryX=0;entryY=0.5;entryDx=0;entryDy=0;exitX=0.75;exitY=0;exitDx=0;exitDy=0;" edge="1" parent="1" source="yu-vMoSQ0n794UT8hFaY-1" target="yu-vMoSQ0n794UT8hFaY-41">
          <mxGeometry relative="1" as="geometry">
            <Array as="points">
              <mxPoint x="371" y="99" />
            </Array>
          </mxGeometry>
        </mxCell>
        <mxCell id="yu-vMoSQ0n794UT8hFaY-58" value="" style="edgeStyle=orthogonalEdgeStyle;rounded=0;orthogonalLoop=1;jettySize=auto;html=1;" edge="1" parent="1" source="yu-vMoSQ0n794UT8hFaY-1" target="yu-vMoSQ0n794UT8hFaY-57">
          <mxGeometry relative="1" as="geometry" />
        </mxCell>
        <mxCell id="yu-vMoSQ0n794UT8hFaY-1" value="User" style="rounded=0;whiteSpace=wrap;html=1;" vertex="1" parent="1">
          <mxGeometry x="281" y="170" width="120" height="60" as="geometry" />
        </mxCell>
        <mxCell id="yu-vMoSQ0n794UT8hFaY-5" value="" style="edgeStyle=orthogonalEdgeStyle;rounded=0;orthogonalLoop=1;jettySize=auto;html=1;" edge="1" parent="1" source="yu-vMoSQ0n794UT8hFaY-2" target="yu-vMoSQ0n794UT8hFaY-4">
          <mxGeometry relative="1" as="geometry" />
        </mxCell>
        <mxCell id="yu-vMoSQ0n794UT8hFaY-2" value="medicine name&amp;nbsp;through&lt;br&gt;OCR" style="ellipse;whiteSpace=wrap;html=1;rounded=0;" vertex="1" parent="1">
          <mxGeometry x="521" y="160" width="80" height="80" as="geometry" />
        </mxCell>
        <mxCell id="yu-vMoSQ0n794UT8hFaY-27" value="" style="edgeStyle=orthogonalEdgeStyle;rounded=0;orthogonalLoop=1;jettySize=auto;html=1;" edge="1" parent="1" source="yu-vMoSQ0n794UT8hFaY-4" target="yu-vMoSQ0n794UT8hFaY-26">
          <mxGeometry relative="1" as="geometry" />
        </mxCell>
        <mxCell id="yu-vMoSQ0n794UT8hFaY-4" value="Add&lt;br&gt;medicine&lt;br&gt;form" style="ellipse;whiteSpace=wrap;html=1;rounded=0;" vertex="1" parent="1">
          <mxGeometry x="692" y="160" width="80" height="80" as="geometry" />
        </mxCell>
        <mxCell id="yu-vMoSQ0n794UT8hFaY-6" value="Extract name&lt;br&gt;of medicine from&lt;br&gt;image" style="text;html=1;align=center;verticalAlign=middle;resizable=0;points=[];autosize=1;strokeColor=none;fillColor=none;" vertex="1" parent="1">
          <mxGeometry x="401" y="177" width="110" height="60" as="geometry" />
        </mxCell>
        <mxCell id="yu-vMoSQ0n794UT8hFaY-7" value="Display data&lt;br&gt;in form" style="text;html=1;align=center;verticalAlign=middle;resizable=0;points=[];autosize=1;strokeColor=none;fillColor=none;" vertex="1" parent="1">
          <mxGeometry x="597" y="180" width="90" height="40" as="geometry" />
        </mxCell>
        <mxCell id="yu-vMoSQ0n794UT8hFaY-34" value="" style="edgeStyle=orthogonalEdgeStyle;rounded=0;orthogonalLoop=1;jettySize=auto;html=1;" edge="1" parent="1" source="yu-vMoSQ0n794UT8hFaY-17" target="yu-vMoSQ0n794UT8hFaY-33">
          <mxGeometry relative="1" as="geometry" />
        </mxCell>
        <mxCell id="yu-vMoSQ0n794UT8hFaY-17" value="medicine data" style="shape=partialRectangle;whiteSpace=wrap;html=1;left=0;right=0;fillColor=none;" vertex="1" parent="1">
          <mxGeometry x="577" y="10" width="120" height="30" as="geometry" />
        </mxCell>
        <mxCell id="yu-vMoSQ0n794UT8hFaY-30" style="edgeStyle=orthogonalEdgeStyle;rounded=0;orthogonalLoop=1;jettySize=auto;html=1;exitX=0.5;exitY=0;exitDx=0;exitDy=0;entryX=1;entryY=0.5;entryDx=0;entryDy=0;" edge="1" parent="1" source="yu-vMoSQ0n794UT8hFaY-26" target="yu-vMoSQ0n794UT8hFaY-17">
          <mxGeometry relative="1" as="geometry" />
        </mxCell>
        <mxCell id="yu-vMoSQ0n794UT8hFaY-26" value="Store&lt;br&gt;data" style="ellipse;whiteSpace=wrap;html=1;rounded=0;" vertex="1" parent="1">
          <mxGeometry x="698" y="50" width="68" height="70" as="geometry" />
        </mxCell>
        <mxCell id="yu-vMoSQ0n794UT8hFaY-31" value="Store&lt;br&gt;medicine&lt;br&gt;data" style="text;html=1;align=center;verticalAlign=middle;resizable=0;points=[];autosize=1;strokeColor=none;fillColor=none;" vertex="1" parent="1">
          <mxGeometry x="712" y="-12" width="70" height="60" as="geometry" />
        </mxCell>
        <mxCell id="yu-vMoSQ0n794UT8hFaY-36" style="edgeStyle=orthogonalEdgeStyle;rounded=0;orthogonalLoop=1;jettySize=auto;html=1;exitX=0;exitY=0.5;exitDx=0;exitDy=0;entryX=0.5;entryY=0;entryDx=0;entryDy=0;" edge="1" parent="1" source="yu-vMoSQ0n794UT8hFaY-33" target="yu-vMoSQ0n794UT8hFaY-1">
          <mxGeometry relative="1" as="geometry" />
        </mxCell>
        <mxCell id="yu-vMoSQ0n794UT8hFaY-33" value="get data" style="ellipse;whiteSpace=wrap;html=1;fillColor=none;" vertex="1" parent="1">
          <mxGeometry x="420" width="64" height="50" as="geometry" />
        </mxCell>
        <mxCell id="yu-vMoSQ0n794UT8hFaY-35" value="Retrives&lt;br&gt;medicine data" style="text;html=1;align=center;verticalAlign=middle;resizable=0;points=[];autosize=1;strokeColor=none;fillColor=none;" vertex="1" parent="1">
          <mxGeometry x="485" y="5" width="100" height="40" as="geometry" />
        </mxCell>
        <mxCell id="yu-vMoSQ0n794UT8hFaY-39" value="Show list of&lt;br&gt;medicines&lt;br&gt;to user" style="text;html=1;align=center;verticalAlign=middle;resizable=0;points=[];autosize=1;strokeColor=none;fillColor=none;" vertex="1" parent="1">
          <mxGeometry x="340" y="3" width="80" height="60" as="geometry" />
        </mxCell>
        <mxCell id="yu-vMoSQ0n794UT8hFaY-48" value="" style="edgeStyle=orthogonalEdgeStyle;rounded=0;orthogonalLoop=1;jettySize=auto;html=1;entryX=0.5;entryY=1;entryDx=0;entryDy=0;" edge="1" parent="1" source="yu-vMoSQ0n794UT8hFaY-41" target="yu-vMoSQ0n794UT8hFaY-17">
          <mxGeometry relative="1" as="geometry">
            <mxPoint x="546" y="99" as="targetPoint" />
          </mxGeometry>
        </mxCell>
        <mxCell id="yu-vMoSQ0n794UT8hFaY-41" value="edit &amp;amp; update&lt;br&gt;data" style="ellipse;whiteSpace=wrap;html=1;rounded=0;" vertex="1" parent="1">
          <mxGeometry x="446" y="70" width="60" height="58" as="geometry" />
        </mxCell>
        <mxCell id="yu-vMoSQ0n794UT8hFaY-46" value="Edit&lt;br&gt;medicine&lt;br&gt;details" style="text;html=1;align=center;verticalAlign=middle;resizable=0;points=[];autosize=1;strokeColor=none;fillColor=none;" vertex="1" parent="1">
          <mxGeometry x="369" y="76" width="70" height="60" as="geometry" />
        </mxCell>
        <mxCell id="yu-vMoSQ0n794UT8hFaY-49" value="Storing edited data" style="text;html=1;align=center;verticalAlign=middle;resizable=0;points=[];autosize=1;strokeColor=none;fillColor=none;" vertex="1" parent="1">
          <mxGeometry x="510" y="75" width="120" height="30" as="geometry" />
        </mxCell>
        <mxCell id="yu-vMoSQ0n794UT8hFaY-56" value="Data is&lt;br&gt;ready to&lt;br&gt;store" style="text;html=1;align=center;verticalAlign=middle;resizable=0;points=[];autosize=1;strokeColor=none;fillColor=none;" vertex="1" parent="1">
          <mxGeometry x="730" y="110" width="70" height="60" as="geometry" />
        </mxCell>
        <mxCell id="yu-vMoSQ0n794UT8hFaY-60" value="" style="edgeStyle=orthogonalEdgeStyle;rounded=0;orthogonalLoop=1;jettySize=auto;html=1;" edge="1" parent="1" source="yu-vMoSQ0n794UT8hFaY-57" target="yu-vMoSQ0n794UT8hFaY-59">
          <mxGeometry relative="1" as="geometry" />
        </mxCell>
        <mxCell id="yu-vMoSQ0n794UT8hFaY-57" value="Prescription&lt;br&gt;data through&lt;br&gt;OCR" style="ellipse;whiteSpace=wrap;html=1;rounded=0;" vertex="1" parent="1">
          <mxGeometry x="93" y="160" width="80" height="80" as="geometry" />
        </mxCell>
        <mxCell id="yu-vMoSQ0n794UT8hFaY-59" value="Add&lt;br&gt;prescription" style="ellipse;whiteSpace=wrap;html=1;rounded=0;" vertex="1" parent="1">
          <mxGeometry x="-72" y="160" width="80" height="80" as="geometry" />
        </mxCell>
        <mxCell id="yu-vMoSQ0n794UT8hFaY-61" value="Display data&lt;br&gt;in form" style="text;html=1;align=center;verticalAlign=middle;resizable=0;points=[];autosize=1;strokeColor=none;fillColor=none;" vertex="1" parent="1">
          <mxGeometry x="10" y="180" width="90" height="40" as="geometry" />
        </mxCell>
        <mxCell id="yu-vMoSQ0n794UT8hFaY-62" value="Extract&lt;br&gt;prescription&lt;br&gt;data from image" style="text;html=1;align=center;verticalAlign=middle;resizable=0;points=[];autosize=1;strokeColor=none;fillColor=none;" vertex="1" parent="1">
          <mxGeometry x="174" y="177" width="110" height="60" as="geometry" />
        </mxCell>
      </root>
    </mxGraphModel>
  </diagram>
</mxfile>
